Coordinates
version=1
nRows=7
nColumns=63
inDegrees=yes

Units are S.I. units (second, meters, Newtons, ...)
If the header above contains a line with 'inDegrees', this indicates whether rotational values are in degrees (yes) or radians (no).

endheader
time	pelvis_tilt	pelvis_list	pelvis_rotation	pelvis_tx	pelvis_ty	pelvis_tz	hip_flexion_r	hip_adduction_r	hip_rotation_r	knee_angle_r	knee_angle_r_beta	ankle_angle_r	subtalar_angle_r	mtp_angle_r	hip_flexion_l	hip_adduction_l	hip_rotation_l	knee_angle_l	knee_angle_l_beta	ankle_angle_l	subtalar_angle_l	mtp_angle_l	L5_S1_Flex_Ext	L5_S1_Lat_Bending	L5_S1_axial_rotation	L4_L5_Flex_Ext	L4_L5_Lat_Bending	L4_L5_axial_rotation	L3_L4_Flex_Ext	L3_L4_Lat_Bending	L3_L4_axial_rotation	L2_L3_Flex_Ext	L2_L3_Lat_Bending	L2_L3_axial_rotation	L1_L2_Flex_Ext	L1_L2_Lat_Bending	L1_L2_axial_rotation	L1_T12_Flex_Ext	L1_T12_Lat_Bending	L1_T12_axial_rotation	Abs_r3	Abs_r2	Abs_r1	Abs_t1	Abs_t2	neck_flexion	neck_bending	neck_rotation	arm_flex_r	arm_add_r	arm_rot_r	elbow_flex_r	pro_sup_r	wrist_flex_r	wrist_dev_r	arm_flex_l	arm_add_l	arm_rot_l	elbow_flex_l	pro_sup_l	wrist_flex_l	wrist_dev_l
      0.00000000	     -0.32041280	     -5.22529270	     92.08413664	      0.19417142	      0.79013426	      0.87748465	      3.77554562	      1.43333726	     11.82028486	     10.77271351	      0.18801932	     37.38297225	     -6.33390364	      0.00000000	      1.43211998	      2.08911053	     12.85201332	      5.47311306	      0.09552384	     34.96702967	    -14.23437487	      0.00000000	     -0.08176570	     -0.15363226	      1.38737245	     -0.15184708	     -0.20433091	      1.47408323	     -0.13433287	     -0.37354148	      1.47408323	     -0.09345002	     -0.37354148	      1.21395089	     -0.07592763	     -0.31328691	      1.12724012	     -0.04672092	     -0.23797637	      1.04052934	     -0.58404421	     -1.73791888	      7.71614936	      0.00000000	      0.00000000	     15.22446427	      6.10936241	     -8.31590672	     -0.76263277	     -8.79863466	     27.46820447	     61.23226546	      1.51287153	    -40.80669079	     22.79519260	     26.30863681	     -5.20905745	     81.59286971	     49.22223945	     78.05718201	      5.46797180	      8.41638861
      0.01694915	     -0.20410986	     -5.56292028	     92.30075550	      0.19371803	      0.78972876	      0.87640591	      4.13100142	      1.51230759	     11.31106031	     10.92131516	      0.19061291	     37.39501442	     -6.09699442	      0.00000000	      1.76405742	      1.98704944	     13.87793438	      5.34823360	      0.09334429	     35.03671890	    -14.26170584	      0.00000000	     -0.04138883	     -0.13366724	      1.38704189	     -0.07686320	     -0.17777743	      1.47373201	     -0.06799772	     -0.32499854	      1.47373201	     -0.04730330	     -0.32499854	      1.21366165	     -0.03843367	     -0.27257424	      1.12697153	     -0.02364958	     -0.20705056	      1.04028142	     -0.29563630	     -1.51207059	      7.71431087	      0.00000000	      0.00000000	     15.72805418	      5.73475704	     -8.23084615	     -1.76162905	     -9.11025808	     26.64505655	     63.12412014	      1.83480713	    -37.72506271	     19.95362663	     26.89847467	     -5.16712673	     83.32647705	     49.36756842	     78.07387965	      3.99747235	      7.97151118
      0.03389831	     -0.16701011	     -5.73585165	     92.31801766	      0.19366488	      0.78955917	      0.87588113	      4.39730879	      1.50327374	     10.69090560	     11.14475574	      0.19451268	     37.52787263	     -5.40834460	      0.00000000	      1.88410239	      1.94657210	     14.52687660	      5.15004997	      0.08988533	     34.94469547	    -14.45216006	      0.00000000	     -0.02736090	     -0.12769250	      1.39623208	     -0.05081193	     -0.16983102	      1.48349659	     -0.04495123	     -0.31047154	      1.48349659	     -0.03127078	     -0.31047154	      1.22170307	     -0.02540733	     -0.26039055	      1.13443857	     -0.01563402	     -0.19779568	      1.04717406	     -0.19543620	     -1.44448309	      7.76542397	      0.00000000	      0.00000000	     16.15910556	      5.43027985	     -8.32799772	     -2.17755481	     -9.46549612	     26.81956503	     64.11226189	      2.00718562	    -33.76042685	     17.67986639	     27.70064510	     -5.29473497	     85.42084619	     49.52182293	     74.87412400	      1.88774028	      7.06596479
      0.05084746	     -0.05375565	     -5.85569333	     92.43717499	      0.19339964	      0.78938875	      0.87543279	      4.52791714	      1.57588275	     10.22604932	     11.21274153	      0.19569926	     37.54390495	     -5.01268270	      0.00000000	      2.01987422	      1.83310701	     14.79061015	      5.12417332	      0.08943370	     35.05168421	    -14.29254796	      0.00000000	     -0.01179343	     -0.10919371	      1.37205246	     -0.02190158	     -0.14522763	      1.45780573	     -0.01937542	     -0.26549358	      1.45780573	     -0.01347871	     -0.26549358	      1.20054590	     -0.01095138	     -0.22266781	      1.11479262	     -0.00673877	     -0.16914106	      1.02903934	     -0.08423929	     -1.23522107	      7.63094414	      0.00000000	      0.00000000	     16.35339411	      5.24969602	     -8.09427541	     -2.50173719	     -9.62840905	     26.95648969	     64.68854986	      2.11794950	    -30.39912887	     15.72579472	     28.02401045	     -5.44677513	     86.24795457	     49.64055109	     70.95620221	      0.40283088	      6.35008647
      0.06779661	      0.05089542	     -5.90556685	     92.52236023	      0.19319741	      0.78930868	      0.87529080	      4.59654904	      1.63749382	      9.75151240	     11.26914790	      0.19668373	     37.56038165	     -4.53122399	      0.00000000	      2.10930393	      1.73014185	     14.72392951	      5.14202840	      0.08974533	     35.10292412	    -14.07101106	      0.00000000	     -0.00350194	     -0.09216810	      1.36347047	     -0.00650346	     -0.12258358	      1.44868738	     -0.00575334	     -0.22409753	      1.44868738	     -0.00400237	     -0.22409753	      1.19303666	     -0.00325190	     -0.18794920	      1.10781976	     -0.00200101	     -0.14276839	      1.02260285	     -0.02501402	     -1.04262403	      7.58321372	      0.00000000	      0.00000000	     16.39073382	      5.07706202	     -8.00612114	     -2.72288586	     -9.64822122	     26.97235569	     64.95701084	      2.21461629	    -27.69542891	     14.34987663	     28.42269515	     -5.57604152	     87.35918570	     49.76792497	     65.52807305	     -1.50210265	      5.09132526
      0.08474576	      0.21266819	     -5.82011903	     92.54722015	      0.19309327	      0.78927215	      0.87511712	      4.53391609	      1.81115549	      9.66056419	     11.35171049	      0.19812472	     37.56980360	     -4.51394741	      0.00000000	      2.05134995	      1.56614177	     14.65644803	      5.20350124	      0.09081823	     35.20263142	    -14.06771461	      0.00000000	     -0.01770969	     -0.06806319	      1.35232256	     -0.03288866	     -0.09052404	      1.43684272	     -0.02909525	     -0.16548883	      1.43684272	     -0.02024040	     -0.16548883	      1.18328224	     -0.01644522	     -0.13879445	      1.09876208	     -0.01011932	     -0.10542987	      1.01424192	     -0.12649853	     -0.76994436	      7.52121236	      0.00000000	      0.00000000	     16.51541635	      4.96841565	     -7.95631618	     -2.86825293	     -9.55224223	     26.79316204	     65.28870791	      2.35250510	    -26.66060436	     13.65265074	     27.96526879	     -5.83279390	     85.89810831	     50.00947872	     63.94767206	     -1.86752109	      4.56696995
      0.10169492	      0.29339167	     -5.81604465	     92.72659869	      0.19282949	      0.78941065	      0.87533453	      4.48471700	      1.89617619	      9.79145688	     11.24640390	      0.19628678	     37.41363196	     -4.85171657	      0.00000000	      2.12795713	      1.46816491	     14.03312023	      5.30486771	      0.09258741	     35.43699508	    -13.05872007	      0.00000000	     -0.01019115	     -0.05661086	      1.29030429	     -0.01892598	     -0.07529244	      1.37094831	     -0.01674304	     -0.13764363	      1.37094831	     -0.01164746	     -0.13764363	      1.12901625	     -0.00946350	     -0.11544086	      1.04837224	     -0.00582322	     -0.08769021	      0.96772822	     -0.07279436	     -0.64039332	      7.17628537	      0.00000000	      0.00000000	     16.27365000	      5.06197436	     -7.55629758	     -2.41247128	     -9.96116288	     28.28679641	     64.86394676	      2.42784513	    -23.32662946	     12.21069416	     28.23657861	     -6.06378621	     86.71057851	     50.44146750	     58.60852794	     -3.49691685	      3.95427251
